<?xml version="1.0" encoding="UTF-8" standalone="no"?>
<svg
   xmlns:dc="http://purl.org/dc/elements/1.1/"
   xmlns:cc="http://creativecommons.org/ns#"
   xmlns:rdf="http://www.w3.org/1999/02/22-rdf-syntax-ns#"
   xmlns:svg="http://www.w3.org/2000/svg"
   xmlns="http://www.w3.org/2000/svg"
   xmlns:sodipodi="http://sodipodi.sourceforge.net/DTD/sodipodi-0.dtd"
   xmlns:inkscape="http://www.inkscape.org/namespaces/inkscape"
   version="1.1"
   id="svg2"
   xml:space="preserve"
   width="341.33334"
   height="341.33334"
   viewBox="0 0 341.33334 341.33334"
   sodipodi:docname="Untitled-1.ai"><metadata
     id="metadata8"><rdf:RDF><cc:Work
         rdf:about=""><dc:format>image/svg+xml</dc:format><dc:type
           rdf:resource="http://purl.org/dc/dcmitype/StillImage" /></cc:Work></rdf:RDF></metadata><defs
     id="defs6"><clipPath
       clipPathUnits="userSpaceOnUse"
       id="clipPath18"><path
         d="M 0,256 H 256 V 0 H 0 Z"
         id="path16" /></clipPath><clipPath
       clipPathUnits="userSpaceOnUse"
       id="clipPath26"><path
         d="M 20,224 H 244 V 64 H 20 Z"
         id="path24" /></clipPath><linearGradient
       x1="0"
       y1="0"
       x2="1"
       y2="0"
       gradientUnits="userSpaceOnUse"
       gradientTransform="matrix(0,-160,-160,0,132,224)"
       spreadMethod="pad"
       id="linearGradient36"><stop
         style="stop-opacity:1;stop-color:#000000"
         offset="0"
         id="stop32" /><stop
         style="stop-opacity:1;stop-color:#513c35"
         offset="1"
         id="stop34" /></linearGradient><linearGradient
       x1="0"
       y1="0"
       x2="1"
       y2="0"
       gradientUnits="userSpaceOnUse"
       gradientTransform="matrix(0,-160,-160,0,128,228)"
       spreadMethod="pad"
       id="linearGradient68"><stop
         style="stop-opacity:1;stop-color:#914d36"
         offset="0"
         id="stop64" /><stop
         style="stop-opacity:1;stop-color:#513c35"
         offset="1"
         id="stop66" /></linearGradient><linearGradient
       x1="0"
       y1="0"
       x2="1"
       y2="0"
       gradientUnits="userSpaceOnUse"
       gradientTransform="matrix(0,-160,-160,0,128,228)"
       spreadMethod="pad"
       id="linearGradient88"><stop
         style="stop-opacity:1;stop-color:#914d36"
         offset="0"
         id="stop84" /><stop
         style="stop-opacity:1;stop-color:#513c35"
         offset="1"
         id="stop86" /></linearGradient><clipPath
       clipPathUnits="userSpaceOnUse"
       id="clipPath98"><path
         d="M 0,256 H 256 V 0 H 0 Z"
         id="path96" /></clipPath><linearGradient
       x1="0"
       y1="0"
       x2="1"
       y2="0"
       gradientUnits="userSpaceOnUse"
       gradientTransform="matrix(0,-40,-40,0,210,56)"
       spreadMethod="pad"
       id="linearGradient144"><stop
         style="stop-opacity:1;stop-color:#ffe690"
         offset="0"
         id="stop136" /><stop
         style="stop-opacity:1;stop-color:#ffe690"
         offset="0.1"
         id="stop138" /><stop
         style="stop-opacity:1;stop-color:#ff9e9e"
         offset="0.9"
         id="stop140" /><stop
         style="stop-opacity:1;stop-color:#ff9e9e"
         offset="1"
         id="stop142" /></linearGradient><linearGradient
       x1="0"
       y1="0"
       x2="1"
       y2="0"
       gradientUnits="userSpaceOnUse"
       gradientTransform="matrix(0,-48,-48,0,94,56)"
       spreadMethod="pad"
       id="linearGradient164"><stop
         style="stop-opacity:1;stop-color:#914d36"
         offset="0"
         id="stop160" /><stop
         style="stop-opacity:1;stop-color:#513c35"
         offset="1"
         id="stop162" /></linearGradient></defs><sodipodi:namedview
     pagecolor="#ffffff"
     bordercolor="#666666"
     borderopacity="1"
     objecttolerance="10"
     gridtolerance="10"
     guidetolerance="10"
     inkscape:pageopacity="0"
     inkscape:pageshadow="2"
     inkscape:window-width="640"
     inkscape:window-height="480"
     id="namedview4" /><g
     id="g10"
     inkscape:groupmode="layer"
     inkscape:label="Untitled-1"
     transform="matrix(1.3333333,0,0,-1.3333333,0,341.33333)"><g
       id="g12"><g
         id="g14"
         clip-path="url(#clipPath18)"><g
           id="g20"><g
             id="g22" /><g
             id="g50"><g
               clip-path="url(#clipPath26)"
               opacity="0.300003"
               id="g48"><g
                 id="g46"><g
                   id="g44"><g
                     id="g42"><g
                       id="g40"><path
                         d="M 100,180.564 V 80 H 36 v 32 h 32 c 8.836,0 16,7.163 16,16 v 32 c 0,8.836 -7.164,16 -16,16 H 36 v 32 h 40 c 0,0 8.5,-0.5 8,8 0.5,7.5 -8,8 -8,8 H 36 c -8.836,0 -16,-7.164 -16,-16 v -32 c 0,-8.836 7.164,-16 16,-16 H 68 V 128 H 36 c -1.899,0 -3.721,-0.331 -5.412,-0.938 C 24.415,124.844 20,118.938 20,112 V 80 c 0,-8.837 7.164,-16 16,-16 h 64 c 8.836,0 16,7.163 16,16 v 64 c 0,8.836 7.164,16 16,16 8.837,0 16,-7.164 16,-16 V 80 c 0,-8.837 7.163,-16 16,-16 h 64 c 8.837,0 16,7.163 16,16 v 32 c 0,8.837 -7.163,16 -16,16 h -32 v 32 h 32 c 8.837,0 16,7.164 16,16 v 32 c 0,8.836 -7.163,16 -16,16 h -40 c 0,0 -8.5,-0.5 -8,-8 -0.5,-8.5 8,-8 8,-8 h 40 v -32 h -32 c -8.837,0 -16,-7.164 -16,-16 v -32 c 0,-8.837 7.163,-16 16,-16 h 32 V 80 h -64 v 111.334 c 0,17.437 -13.671,32.176 -31.101,32.654 C 114.815,224.483 100,209.972 100,192 Z"
                         style="fill:url(#linearGradient36);stroke:none"
                         id="path38" /></g></g></g></g></g></g></g></g></g><g
       id="g52"><g
         id="g54"><g
           id="g60"><g
             id="g62"><path
               d="M 96,196 V 184.565 84 H 32 v 32 h 32 c 8.836,0 16,7.163 16,16 v 0 32 c 0,8.836 -7.164,16 -16,16 v 0 H 32 v 32 h 40 c 0,0 8.5,-0.5 8,8 v 0 c 0.5,7.5 -8,8 -8,8 v 0 H 32 c -8.837,0 -16,-7.163 -16,-16 v 0 -32 c 0,-8.836 7.163,-16 16,-16 v 0 H 64 V 132 H 32 c -1.9,0 -3.721,-0.331 -5.411,-0.938 v 0 C 20.415,128.843 16,122.937 16,116 v 0 -32 c 0,-8.837 7.163,-16 16,-16 v 0 h 64 c 8.837,0 16,7.163 16,16 v 0 64 c 0,8.837 7.164,16 16,16 v 0 c 8.837,0 16,-7.163 16,-16 v 0 -64 c 0,-8.837 7.163,-16 16,-16 v 0 h 64 c 8.837,0 16,7.163 16,16 v 0 32 c 0,8.837 -7.163,16 -16,16 v 0 h -32 v 32 h 32 c 8.837,0 16,7.164 16,16 v 0 32 c 0,8.837 -7.163,16 -16,16 v 0 h -40 c 0,0 -8.5,-0.5 -8,-8 v 0 c -0.5,-8.5 8,-8 8,-8 v 0 h 40 v -32 h -32 c -8.837,0 -16,-7.164 -16,-16 v 0 -32 c 0,-8.837 7.163,-16 16,-16 v 0 h 32 V 84 h -64 v 111.334 c 0,17.437 -13.671,32.176 -31.1,32.654 v 0 c -0.299,0.008 -0.601,0.012 -0.898,0.012 v 0 C 110.326,228.002 96,213.675 96,196"
               style="fill:url(#linearGradient68);stroke:none"
               id="path70" /></g></g></g></g><g
       id="g72"><g
         id="g74"><g
           id="g80"><g
             id="g82"><path
               d="m 184,228 c 0,0 -8.5,-0.5 -8,-8 v 0 c -0.5,-8.5 8,-8 8,-8 v 0 h 40 v -32 h -32 c -8.837,0 -16,-7.164 -16,-16 v 0 -32 c 0,-8.837 7.163,-16 16,-16 v 0 h 32 V 84 h -64 v 111.334 c 0,17.437 -13.671,32.176 -31.1,32.654 v 0 c -0.222,0.006 -0.445,0.01 -0.667,0.012 v 0 h -0.472 C 110.196,227.873 96,213.595 96,196 V 196 184.565 84 H 32 v 32 h 32 c 8.836,0 16,7.163 16,16 v 0 32 c 0,8.836 -7.164,16 -16,16 v 0 H 32 v 32 h 40 c 0,0 8.5,-0.5 8,8 v 0 c 0.5,7.5 -8,8 -8,8 v 0 H 32 c -8.837,0 -16,-7.163 -16,-16 v 0 -32 c 0,-8.836 7.163,-16 16,-16 v 0 H 64 V 132 H 32 c -1.9,0 -3.721,-0.331 -5.411,-0.938 v 0 C 20.415,128.843 16,122.937 16,116 v 0 -32 c 0,-8.837 7.163,-16 16,-16 v 0 h 64 c 8.837,0 16,7.163 16,16 v 0 64 c 0,8.837 7.164,16 16,16 v 0 c 8.837,0 16,-7.163 16,-16 v 0 -64 c 0,-8.837 7.163,-16 16,-16 v 0 h 64 c 8.837,0 16,7.163 16,16 v 0 32 c 0,8.837 -7.163,16 -16,16 v 0 h -32 v 32 h 32 c 8.837,0 16,7.164 16,16 v 0 32 c 0,8.837 -7.163,16 -16,16 v 0 z"
               style="fill:url(#linearGradient88);stroke:none"
               id="path90" /></g></g></g></g><g
       id="g92"><g
         id="g94"
         clip-path="url(#clipPath98)"><g
           id="g100"
           transform="translate(128,184)"><path
             d="m 0,0 -12,-12 c 7.79,-2.597 16.211,-2.597 24,0 z"
             style="fill:#ff9e9e;fill-opacity:1;fill-rule:nonzero;stroke:none"
             id="path102" /></g><g
           id="g104"
           transform="translate(125.1064,183.106)"><path
             d="m 0,0 c -1.446,1.447 -2.893,2.893 -2.893,2.893 0,0 -8.735,-5.707 -11.574,-7.715 -1.888,-1.336 -2.629,-4.587 -2.639,-7.417 -0.01,-2.697 2.169,-4.876 4.866,-4.866 2.831,0.01 6.082,0.75 7.418,2.638 2.009,2.839 7.716,11.573 7.716,11.573 z"
             style="fill:#ffe690;fill-opacity:1;fill-rule:nonzero;stroke:none"
             id="path106" /></g><g
           id="g108"
           transform="translate(130.8936,183.106)"><path
             d="m 0,0 c 1.446,1.447 2.894,2.893 2.894,2.893 0,0 8.734,-5.707 11.573,-7.715 1.888,-1.336 2.629,-4.587 2.639,-7.417 0.01,-2.697 -2.169,-4.876 -4.866,-4.866 -2.832,0.01 -6.082,0.75 -7.418,2.638 -2.009,2.839 -7.716,11.573 -7.716,11.573 0,0 1.447,1.447 2.894,2.894"
             style="fill:#ffe690;fill-opacity:1;fill-rule:nonzero;stroke:none"
             id="path110" /></g><g
           id="g112"
           transform="translate(120,200)"><path
             d="m 0,0 c 0,-4.418 -3.582,-8 -8,-8 -4.418,0 -8,3.582 -8,8 0,4.418 3.582,8 8,8 4.418,0 8,-3.582 8,-8"
             style="fill:#000000;fill-opacity:1;fill-rule:nonzero;stroke:none"
             id="path114" /></g><g
           id="g116"
           transform="translate(152,200)"><path
             d="m 0,0 c 0,-4.418 -3.582,-8 -8,-8 -4.418,0 -8,3.582 -8,8 0,4.418 3.582,8 8,8 4.418,0 8,-3.582 8,-8"
             style="fill:#000000;fill-opacity:1;fill-rule:nonzero;stroke:none"
             id="path118" /></g><g
           id="g120"
           transform="translate(134,186)"><path
             d="m 0,0 c 0,-3.313 -2.687,-6 -6,-6 -3.313,0 -6,2.687 -6,6 0,3.313 2.687,6 6,6 3.313,0 6,-2.687 6,-6"
             style="fill:#000000;fill-opacity:1;fill-rule:nonzero;stroke:none"
             id="path122" /></g></g></g><g
       id="g124"><g
         id="g126"><g
           id="g132"><g
             id="g134"><path
               d="m 185.98,54.949 c -3.388,0 -5.082,-1.726 -5.082,-5.174 v 0 -26.652 c 0,-3.45 1.694,-5.173 5.082,-5.173 v 0 h 20.295 c 5.039,0 5.039,8.045 0,8.045 v 0 h -17.233 v 6.909 h 14.881 c 2.447,0 3.695,2.009 3.695,4.068 v 0 c 0,1.966 -1.248,3.976 -3.743,3.976 v 0 h -14.833 v 5.954 h 17.089 c 2.497,0 3.792,2.011 3.792,4.022 v 0 c 0,2.012 -1.295,4.025 -3.84,4.025 v 0 z m 45.428,-9.728 -4.224,-6.098 -4.321,6.192 c -0.767,1.155 -1.968,1.634 -3.12,1.634 v 0 c -2.208,0 -4.464,-1.634 -4.464,-3.745 v 0 c 0,-0.672 0.239,-1.391 0.815,-2.16 v 0 l 6.193,-8.496 -6.67,-9.073 c -0.578,-0.767 -0.818,-1.536 -0.818,-2.304 v 0 c 0,-2.208 2.016,-4.081 4.177,-4.081 v 0 c 1.15,0 2.351,0.528 3.265,1.873 v 0 l 4.943,7.105 4.944,-7.154 c 0.817,-1.248 1.97,-1.728 3.122,-1.728 v 0 c 2.159,0 4.367,1.872 4.367,4.081 v 0 c 0,0.672 -0.24,1.441 -0.769,2.16 v 0 l -6.768,9.121 6.099,8.496 c 0.575,0.769 0.814,1.536 0.814,2.257 v 0 c 0,2.064 -2.16,3.648 -4.319,3.648 v 0 c -1.201,0 -2.45,-0.527 -3.266,-1.728"
               style="fill:url(#linearGradient144);stroke:none"
               id="path146" /></g></g></g></g><g
       id="g148"><g
         id="g150"><g
           id="g156"><g
             id="g158"><path
               d="M 129.504,52.685 V 20.472 c 0,-2.086 2.011,-3.13 4.024,-3.13 v 0 c 2.012,0 4.024,1.044 4.024,3.13 v 0 32.213 c 0,2.18 -2.012,3.27 -4.024,3.27 v 0 c -2.012,0 -4.024,-1.09 -4.024,-3.27 M 24.081,54.949 c -3.387,0 -5.083,-1.726 -5.083,-5.174 v 0 -26.652 c 0,-3.45 1.696,-5.173 5.083,-5.173 v 0 H 37.7 c 9.828,0 14.299,3.782 14.299,12.095 v 0 c 0,3.613 -1.836,7.156 -4.659,8.605 v 0 c 2.072,1.299 2.966,3.591 2.966,6.131 v 0 c 0,6.575 -4.189,10.168 -13.455,10.168 v 0 z m 3.069,-8.041 h 9.951 c 3.648,0 4.999,-0.624 4.999,-2.334 v 0 c 0,-1.666 -1.048,-2.625 -4.25,-2.625 v 0 h -10.7 z m 0,-12.858 h 10.6 c 4.2,0 6.049,-1.308 6.049,-4.005 v 0 c 0,-2.795 -1.849,-4.048 -6.049,-4.048 v 0 h -10.6 z m 126.734,10.354 c 0,2.155 -1.789,3.209 -3.577,3.209 v 0 c -1.834,0 -3.669,-1.101 -3.669,-3.209 v 0 -23.177 c 0,-2.207 2.023,-3.36 3.999,-3.36 v 0 c 1.929,0 3.812,1.056 3.812,3.216 v 0 12.194 c 0,4.367 2.198,6.912 6.071,6.912 v 0 c 2.794,0 4.305,-1.969 4.305,-4.991 v 0 -14.162 c 0,-2.113 1.976,-3.169 3.907,-3.169 v 0 c 1.975,0 3.905,1.056 3.905,3.169 v 0 14.303 c 0,8.73 -4.001,12.61 -11.774,12.61 v 0 c -2.549,0 -5.884,-1.342 -6.979,-3.545 m -52.704,0.814 c 0,3.259 -7.801,3.259 -7.801,0 v 0 -32.494 c 0,-2.04 2.058,-3.06 4.117,-3.06 v 0 c 2.058,0 4.118,1.02 4.118,3.06 v 0 6.237 c 1.412,-1.438 4.329,-2.012 6.212,-2.012 v 0 c 7.812,0 13.553,5.605 13.553,15.526 v 0 c 0,9.917 -5.741,15.474 -13.553,15.474 v 0 c -2.495,0 -5.693,-1.15 -6.646,-2.731 m 0.199,-12.743 c 0,4.916 2.541,7.667 5.647,7.667 v 0 c 3.905,0 6.446,-2.651 6.446,-7.667 v 0 c 0,-5.018 -2.541,-7.718 -6.446,-7.718 v 0 c -3.152,0 -5.647,2.801 -5.647,7.718 M 58.308,31.878 c 0,-8.539 5.506,-14.929 14.145,-14.929 v 0 c 7.154,0 11.329,2.537 12.866,6.11 v 0 c 0.143,0.374 0.24,0.749 0.24,1.128 v 0 c 0,2.047 -2.448,3.524 -4.513,3.524 v 0 c -1.007,0 -1.919,-0.382 -2.353,-1.191 v 0 c -0.623,-1.189 -2.88,-2.427 -6.095,-2.427 v 0 c -3.025,0 -6.145,2.38 -6.241,4.954 v 0 h 15.314 c 3.408,0 4.895,1.64 4.895,4.519 v 0 0.398 c -0.335,7.583 -6.383,12.985 -14.017,12.985 v 0 c -8.215,0 -14.241,-5.59 -14.241,-15.071 m 14.29,8.071 c 3.215,0 5.375,-1.798 6.001,-4.002 v 0 H 66.406 c 0.672,2.158 2.639,4.002 6.192,4.002"
               style="fill:url(#linearGradient164);stroke:none"
               id="path166" /></g></g></g></g></g></svg>
